<svg xmlns="http://www.w3.org/2000/svg" version="1.1" xmlns:xlink="http://www.w3.org/1999/xlink" xmlns:svgjs="http://svgjs.dev/svgjs" width="1440" height="560" preserveAspectRatio="none" viewBox="0 0 1440 560"><g mask="url(&quot;#SvgjsMask1000&quot;)" fill="none"><rect width="1440" height="560" x="0" y="0" fill="#0e2a47"></rect><path d="M-65.61 387L-65.61 387" stroke="#132e65" stroke-width="1.5"></path><path d="M-65.61 387L41.67 349.72" stroke="#132e65" stroke-width="1.5"></path><path d="M-65.61 387L-55.47 505.66" stroke="#132e65" stroke-width="1.5"></path><path d="M-65.61 387L75.81 527.09" stroke="#132e65" stroke-width="1.5"></path><path d="M-55.47 505.66L-55.47 505.66" stroke="#132e65" stroke-width="1.5"></path><path d="M-55.47 505.66L75.81 527.09" stroke="#132e65" stroke-width="1.5"></path><path d="M-55.47 505.66L41.67 349.72" stroke="#132e65" stroke-width="1.5"></path><path d="M-55.47 505.66L-108.24 710.8" stroke="#132e65" stroke-width="1.5"></path><path d="M-108.24 710.8L-108.24 710.8" stroke="#132e65" stroke-width="1.5"></path><path d="M-108.24 710.8L75.81 527.09" stroke="#132e65" stroke-width="1.5"></path><path d="M-108.24 710.8L-65.61 387" stroke="#132e65" stroke-width="1.5"></path><path d="M-108.24 710.8L254.08 711.57" stroke="#132e65" stroke-width="1.5"></path><path d="M-108.24 710.8L41.67 349.72" stroke="#132e65" stroke-width="1.5"></path><path d="M41.67 349.72L41.67 349.72" stroke="#132e65" stroke-width="1.5"></path><path d="M41.67 349.72L75.81 527.09" stroke="#132e65" stroke-width="1.5"></path><path d="M41.67 349.72L225.85 359.83" stroke="#132e65" stroke-width="1.5"></path><path d="M75.81 527.09L75.81 527.09" stroke="#132e65" stroke-width="1.5"></path><path d="M75.81 527.09L242.36 489.09" stroke="#132e65" stroke-width="1.5"></path><path d="M225.85 359.83L225.85 359.83" stroke="#132e65" stroke-width="1.5"></path><path d="M225.85 359.83L242.36 489.09" stroke="#132e65" stroke-width="1.5"></path><path d="M225.85 359.83L384.96 408.29" stroke="#132e65" stroke-width="1.5"></path><path d="M225.85 359.83L349.76 495.42" stroke="#132e65" stroke-width="1.5"></path><path d="M242.36 489.09L242.36 489.09" stroke="#132e65" stroke-width="1.5"></path><path d="M242.36 489.09L349.76 495.42" stroke="#132e65" stroke-width="1.5"></path><path d="M242.36 489.09L384.96 408.29" stroke="#132e65" stroke-width="1.5"></path><path d="M242.36 489.09L254.08 711.57" stroke="#132e65" stroke-width="1.5"></path><path d="M242.36 489.09L41.67 349.72" stroke="#132e65" stroke-width="1.5"></path><path d="M254.08 711.57L254.08 711.57" stroke="#132e65" stroke-width="1.5"></path><path d="M254.08 711.57L409.42 672.1" stroke="#132e65" stroke-width="1.5"></path><path d="M254.08 711.57L349.76 495.42" stroke="#132e65" stroke-width="1.5"></path><path d="M384.96 408.29L384.96 408.29" stroke="#132e65" stroke-width="1.5"></path><path d="M384.96 408.29L349.76 495.42" stroke="#132e65" stroke-width="1.5"></path><path d="M349.76 495.42L349.76 495.42" stroke="#132e65" stroke-width="1.5"></path><path d="M409.42 672.1L409.42 672.1" stroke="#132e65" stroke-width="1.5"></path><path d="M409.42 672.1L490.93 674.27" stroke="#132e65" stroke-width="1.5"></path><path d="M409.42 672.1L497.02 511.28" stroke="#132e65" stroke-width="1.5"></path><path d="M495.74 384.85L495.74 384.85" stroke="#132e65" stroke-width="1.5"></path><path d="M495.74 384.85L384.96 408.29" stroke="#132e65" stroke-width="1.5"></path><path d="M495.74 384.85L497.02 511.28" stroke="#132e65" stroke-width="1.5"></path><path d="M497.02 511.28L497.02 511.28" stroke="#132e65" stroke-width="1.5"></path><path d="M497.02 511.28L349.76 495.42" stroke="#132e65" stroke-width="1.5"></path><path d="M497.02 511.28L384.96 408.29" stroke="#132e65" stroke-width="1.5"></path><path d="M497.02 511.28L490.93 674.27" stroke="#132e65" stroke-width="1.5"></path><path d="M490.93 674.27L490.93 674.27" stroke="#132e65" stroke-width="1.5"></path><path d="M490.93 674.27L684.92 672.73" stroke="#132e65" stroke-width="1.5"></path><path d="M654.27 368.33L654.27 368.33" stroke="#132e65" stroke-width="1.5"></path><path d="M654.27 368.33L802.83 401.29" stroke="#132e65" stroke-width="1.5"></path><path d="M654.27 368.33L495.74 384.85" stroke="#132e65" stroke-width="1.5"></path><path d="M654.27 368.33L696.52 528.05" stroke="#132e65" stroke-width="1.5"></path><path d="M696.52 528.05L696.52 528.05" stroke="#132e65" stroke-width="1.5"></path><path d="M696.52 528.05L813.16 499.23" stroke="#132e65" stroke-width="1.5"></path><path d="M696.52 528.05L684.92 672.73" stroke="#132e65" stroke-width="1.5"></path><path d="M696.52 528.05L802.83 401.29" stroke="#132e65" stroke-width="1.5"></path><path d="M696.52 528.05L497.02 511.28" stroke="#132e65" stroke-width="1.5"></path><path d="M696.52 528.05L839.86 688.89" stroke="#132e65" stroke-width="1.5"></path><path d="M684.92 672.73L684.92 672.73" stroke="#132e65" stroke-width="1.5"></path><path d="M684.92 672.73L839.86 688.89" stroke="#132e65" stroke-width="1.5"></path><path d="M684.92 672.73L813.16 499.23" stroke="#132e65" stroke-width="1.5"></path><path d="M684.92 672.73L497.02 511.28" stroke="#132e65" stroke-width="1.5"></path><path d="M684.92 672.73L409.42 672.1" stroke="#132e65" stroke-width="1.5"></path><path d="M844.98 82.27L844.98 82.27" stroke="#132e65" stroke-width="1.5"></path><path d="M844.98 82.27L814.45 219.61" stroke="#132e65" stroke-width="1.5"></path><path d="M844.98 82.27L996.76 110.67" stroke="#132e65" stroke-width="1.5"></path><path d="M814.45 219.61L814.45 219.61" stroke="#132e65" stroke-width="1.5"></path><path d="M814.45 219.61L957.55 250.59" stroke="#132e65" stroke-width="1.5"></path><path d="M802.83 401.29L802.83 401.29" stroke="#132e65" stroke-width="1.5"></path><path d="M802.83 401.29L813.16 499.23" stroke="#132e65" stroke-width="1.5"></path><path d="M813.16 499.23L813.16 499.23" stroke="#132e65" stroke-width="1.5"></path><path d="M813.16 499.23L956.74 500.08" stroke="#132e65" stroke-width="1.5"></path><path d="M813.16 499.23L839.86 688.89" stroke="#132e65" stroke-width="1.5"></path><path d="M839.86 688.89L839.86 688.89" stroke="#132e65" stroke-width="1.5"></path><path d="M839.86 688.89L982.49 650.53" stroke="#132e65" stroke-width="1.5"></path><path d="M980.27 -102.89L980.27 -102.89" stroke="#132e65" stroke-width="1.5"></path><path d="M980.27 -102.89L1137.74 -93.45" stroke="#132e65" stroke-width="1.5"></path><path d="M980.27 -102.89L996.76 110.67" stroke="#132e65" stroke-width="1.5"></path><path d="M996.76 110.67L996.76 110.67" stroke="#132e65" stroke-width="1.5"></path><path d="M996.76 110.67L957.55 250.59" stroke="#132e65" stroke-width="1.5"></path><path d="M996.76 110.67L1156.82 103.19" stroke="#132e65" stroke-width="1.5"></path><path d="M996.76 110.67L1127.96 257.34" stroke="#132e65" stroke-width="1.5"></path><path d="M996.76 110.67L814.45 219.61" stroke="#132e65" stroke-width="1.5"></path><path d="M957.55 250.59L957.55 250.59" stroke="#132e65" stroke-width="1.5"></path><path d="M957.55 250.59L960.83 354.73" stroke="#132e65" stroke-width="1.5"></path><path d="M957.55 250.59L1127.96 257.34" stroke="#132e65" stroke-width="1.5"></path><path d="M960.83 354.73L960.83 354.73" stroke="#132e65" stroke-width="1.5"></path><path d="M960.83 354.73L956.74 500.08" stroke="#132e65" stroke-width="1.5"></path><path d="M960.83 354.73L802.83 401.29" stroke="#132e65" stroke-width="1.5"></path><path d="M956.74 500.08L956.74 500.08" stroke="#132e65" stroke-width="1.5"></path><path d="M982.49 650.53L982.49 650.53" stroke="#132e65" stroke-width="1.5"></path><path d="M982.49 650.53L956.74 500.08" stroke="#132e65" stroke-width="1.5"></path><path d="M982.49 650.53L1139.55 561.15" stroke="#132e65" stroke-width="1.5"></path><path d="M1137.74 -93.45L1137.74 -93.45" stroke="#132e65" stroke-width="1.5"></path><path d="M1137.74 -93.45L1285.92 -95.46" stroke="#132e65" stroke-width="1.5"></path><path d="M1137.74 -93.45L1156.82 103.19" stroke="#132e65" stroke-width="1.5"></path><path d="M1156.82 103.19L1156.82 103.19" stroke="#132e65" stroke-width="1.5"></path><path d="M1156.82 103.19L1304.06 77.21" stroke="#132e65" stroke-width="1.5"></path><path d="M1156.82 103.19L1127.96 257.34" stroke="#132e65" stroke-width="1.5"></path><path d="M1156.82 103.19L1278.65 247.38" stroke="#132e65" stroke-width="1.5"></path><path d="M1127.96 257.34L1127.96 257.34" stroke="#132e65" stroke-width="1.5"></path><path d="M1127.96 257.34L1278.65 247.38" stroke="#132e65" stroke-width="1.5"></path><path d="M1127.96 257.34L1260.9 355.53" stroke="#132e65" stroke-width="1.5"></path><path d="M1139.55 561.15L1139.55 561.15" stroke="#132e65" stroke-width="1.5"></path><path d="M1139.55 561.15L1161.33 702.53" stroke="#132e65" stroke-width="1.5"></path><path d="M1139.55 561.15L1280.79 489.17" stroke="#132e65" stroke-width="1.5"></path><path d="M1161.33 702.53L1161.33 702.53" stroke="#132e65" stroke-width="1.5"></path><path d="M1161.33 702.53L1286.39 682.08" stroke="#132e65" stroke-width="1.5"></path><path d="M1161.33 702.53L982.49 650.53" stroke="#132e65" stroke-width="1.5"></path><path d="M1161.33 702.53L1280.79 489.17" stroke="#132e65" stroke-width="1.5"></path><path d="M1161.33 702.53L1421.79 699.65" stroke="#132e65" stroke-width="1.5"></path><path d="M1161.33 702.53L956.74 500.08" stroke="#132e65" stroke-width="1.5"></path><path d="M1285.92 -95.46L1285.92 -95.46" stroke="#132e65" stroke-width="1.5"></path><path d="M1285.92 -95.46L1304.06 77.21" stroke="#132e65" stroke-width="1.5"></path><path d="M1285.92 -95.46L1451.12 38.52" stroke="#132e65" stroke-width="1.5"></path><path d="M1285.92 -95.46L1156.82 103.19" stroke="#132e65" stroke-width="1.5"></path><path d="M1304.06 77.21L1304.06 77.21" stroke="#132e65" stroke-width="1.5"></path><path d="M1304.06 77.21L1451.12 38.52" stroke="#132e65" stroke-width="1.5"></path><path d="M1304.06 77.21L1278.65 247.38" stroke="#132e65" stroke-width="1.5"></path><path d="M1304.06 77.21L1402.17 250.32" stroke="#132e65" stroke-width="1.5"></path><path d="M1278.65 247.38L1278.65 247.38" stroke="#132e65" stroke-width="1.5"></path><path d="M1278.65 247.38L1260.9 355.53" stroke="#132e65" stroke-width="1.5"></path><path d="M1278.65 247.38L1402.17 250.32" stroke="#132e65" stroke-width="1.5"></path><path d="M1260.9 355.53L1260.9 355.53" stroke="#132e65" stroke-width="1.5"></path><path d="M1260.9 355.53L1280.79 489.17" stroke="#132e65" stroke-width="1.5"></path><path d="M1260.9 355.53L1406.78 375.32" stroke="#132e65" stroke-width="1.5"></path><path d="M1260.9 355.53L1402.17 250.32" stroke="#132e65" stroke-width="1.5"></path><path d="M1280.79 489.17L1280.79 489.17" stroke="#132e65" stroke-width="1.5"></path><path d="M1280.79 489.17L1423 537.16" stroke="#132e65" stroke-width="1.5"></path><path d="M1280.79 489.17L1406.78 375.32" stroke="#132e65" stroke-width="1.5"></path><path d="M1286.39 682.08L1286.39 682.08" stroke="#132e65" stroke-width="1.5"></path><path d="M1286.39 682.08L1421.79 699.65" stroke="#132e65" stroke-width="1.5"></path><path d="M1286.39 682.08L1139.55 561.15" stroke="#132e65" stroke-width="1.5"></path><path d="M1286.39 682.08L1280.79 489.17" stroke="#132e65" stroke-width="1.5"></path><path d="M1451.12 38.52L1451.12 38.52" stroke="#132e65" stroke-width="1.5"></path><path d="M1451.12 38.52L1559.75 86.03" stroke="#132e65" stroke-width="1.5"></path><path d="M1451.12 38.52L1572.76 -40.73" stroke="#132e65" stroke-width="1.5"></path><path d="M1402.17 250.32L1402.17 250.32" stroke="#132e65" stroke-width="1.5"></path><path d="M1402.17 250.32L1406.78 375.32" stroke="#132e65" stroke-width="1.5"></path><path d="M1406.78 375.32L1406.78 375.32" stroke="#132e65" stroke-width="1.5"></path><path d="M1406.78 375.32L1544.36 406.6" stroke="#132e65" stroke-width="1.5"></path><path d="M1423 537.16L1423 537.16" stroke="#132e65" stroke-width="1.5"></path><path d="M1423 537.16L1421.79 699.65" stroke="#132e65" stroke-width="1.5"></path><path d="M1423 537.16L1406.78 375.32" stroke="#132e65" stroke-width="1.5"></path><path d="M1423 537.16L1593.98 506.47" stroke="#132e65" stroke-width="1.5"></path><path d="M1423 537.16L1544.36 406.6" stroke="#132e65" stroke-width="1.5"></path><path d="M1423 537.16L1286.39 682.08" stroke="#132e65" stroke-width="1.5"></path><path d="M1421.79 699.65L1421.79 699.65" stroke="#132e65" stroke-width="1.5"></path><path d="M1421.79 699.65L1592.62 687.32" stroke="#132e65" stroke-width="1.5"></path><path d="M1421.79 699.65L1280.79 489.17" stroke="#132e65" stroke-width="1.5"></path><path d="M1572.76 -40.73L1572.76 -40.73" stroke="#132e65" stroke-width="1.5"></path><path d="M1572.76 -40.73L1559.75 86.03" stroke="#132e65" stroke-width="1.5"></path><path d="M1572.76 -40.73L1604.65 217.21" stroke="#132e65" stroke-width="1.5"></path><path d="M1572.76 -40.73L1285.92 -95.46" stroke="#132e65" stroke-width="1.5"></path><path d="M1572.76 -40.73L1304.06 77.21" stroke="#132e65" stroke-width="1.5"></path><path d="M1572.76 -40.73L1402.17 250.32" stroke="#132e65" stroke-width="1.5"></path><path d="M1559.75 86.03L1559.75 86.03" stroke="#132e65" stroke-width="1.5"></path><path d="M1559.75 86.03L1604.65 217.21" stroke="#132e65" stroke-width="1.5"></path><path d="M1559.75 86.03L1402.17 250.32" stroke="#132e65" stroke-width="1.5"></path><path d="M1559.75 86.03L1304.06 77.21" stroke="#132e65" stroke-width="1.5"></path><path d="M1604.65 217.21L1604.65 217.21" stroke="#132e65" stroke-width="1.5"></path><path d="M1604.65 217.21L1544.36 406.6" stroke="#132e65" stroke-width="1.5"></path><path d="M1604.65 217.21L1402.17 250.32" stroke="#132e65" stroke-width="1.5"></path><path d="M1544.36 406.6L1544.36 406.6" stroke="#132e65" stroke-width="1.5"></path><path d="M1544.36 406.6L1593.98 506.47" stroke="#132e65" stroke-width="1.5"></path><path d="M1593.98 506.47L1593.98 506.47" stroke="#132e65" stroke-width="1.5"></path><path d="M1592.62 687.32L1592.62 687.32" stroke="#132e65" stroke-width="1.5"></path><path d="M1592.62 687.32L1593.98 506.47" stroke="#132e65" stroke-width="1.5"></path><circle r="5" cx="-65.61" cy="387" fill="#132e65"></circle><circle r="5" cx="-55.47" cy="505.66" fill="#132e65"></circle><circle r="5" cx="-108.24" cy="710.8" fill="#132e65"></circle><circle r="5" cx="41.67" cy="349.72" fill="#132e65"></circle><circle r="5" cx="75.81" cy="527.09" fill="#132e65"></circle><circle r="5" cx="225.85" cy="359.83" fill="#132e65"></circle><circle r="5" cx="242.36" cy="489.09" fill="#132e65"></circle><circle r="5" cx="254.08" cy="711.57" fill="#132e65"></circle><circle r="5" cx="384.96" cy="408.29" fill="#132e65"></circle><circle r="5" cx="349.76" cy="495.42" fill="#132e65"></circle><circle r="5" cx="409.42" cy="672.1" fill="#132e65"></circle><circle r="5" cx="495.74" cy="384.85" fill="#132e65"></circle><circle r="5" cx="497.02" cy="511.28" fill="#132e65"></circle><circle r="5" cx="490.93" cy="674.27" fill="#132e65"></circle><circle r="5" cx="654.27" cy="368.33" fill="#132e65"></circle><circle r="5" cx="696.52" cy="528.05" fill="#132e65"></circle><circle r="5" cx="684.92" cy="672.73" fill="#132e65"></circle><circle r="5" cx="844.98" cy="82.27" fill="#132e65"></circle><circle r="5" cx="814.45" cy="219.61" fill="#132e65"></circle><circle r="5" cx="802.83" cy="401.29" fill="#132e65"></circle><circle r="5" cx="813.16" cy="499.23" fill="#132e65"></circle><circle r="5" cx="839.86" cy="688.89" fill="#132e65"></circle><circle r="5" cx="980.27" cy="-102.89" fill="#132e65"></circle><circle r="5" cx="996.76" cy="110.67" fill="#132e65"></circle><circle r="5" cx="957.55" cy="250.59" fill="#132e65"></circle><circle r="5" cx="960.83" cy="354.73" fill="#132e65"></circle><circle r="5" cx="956.74" cy="500.08" fill="#132e65"></circle><circle r="5" cx="982.49" cy="650.53" fill="#132e65"></circle><circle r="5" cx="1137.74" cy="-93.45" fill="#132e65"></circle><circle r="5" cx="1156.82" cy="103.19" fill="#132e65"></circle><circle r="5" cx="1127.96" cy="257.34" fill="#132e65"></circle><circle r="5" cx="1139.55" cy="561.15" fill="#132e65"></circle><circle r="5" cx="1161.33" cy="702.53" fill="#132e65"></circle><circle r="5" cx="1285.92" cy="-95.46" fill="#132e65"></circle><circle r="5" cx="1304.06" cy="77.21" fill="#132e65"></circle><circle r="5" cx="1278.65" cy="247.38" fill="#132e65"></circle><circle r="5" cx="1260.9" cy="355.53" fill="#132e65"></circle><circle r="5" cx="1280.79" cy="489.17" fill="#132e65"></circle><circle r="5" cx="1286.39" cy="682.08" fill="#132e65"></circle><circle r="5" cx="1451.12" cy="38.52" fill="#132e65"></circle><circle r="5" cx="1402.17" cy="250.32" fill="#132e65"></circle><circle r="5" cx="1406.78" cy="375.32" fill="#132e65"></circle><circle r="5" cx="1423" cy="537.16" fill="#132e65"></circle><circle r="5" cx="1421.79" cy="699.65" fill="#132e65"></circle><circle r="5" cx="1572.76" cy="-40.73" fill="#132e65"></circle><circle r="5" cx="1559.75" cy="86.03" fill="#132e65"></circle><circle r="5" cx="1604.65" cy="217.21" fill="#132e65"></circle><circle r="5" cx="1544.36" cy="406.6" fill="#132e65"></circle><circle r="5" cx="1593.98" cy="506.47" fill="#132e65"></circle><circle r="5" cx="1592.62" cy="687.32" fill="#132e65"></circle><path d="M345.73 538.13L345.73 538.13" stroke="hsl(228.5, 77.2%, 51.5%)" stroke-width="1.5"></path><path d="M345.73 538.13L205.64 537.34" stroke="hsl(228.5, 77.2%, 51.5%)" stroke-width="1.5"></path><path d="M834.29 666.52L834.29 666.52" stroke="hsl(228.5, 77.2%, 51.5%)" stroke-width="1.5"></path><path d="M834.29 666.52L701.65 662.71" stroke="hsl(228.5, 77.2%, 51.5%)" stroke-width="1.5"></path><path d="M834.29 666.52L970.45 652.37" stroke="hsl(228.5, 77.2%, 51.5%)" stroke-width="1.5"></path><path d="M834.29 666.52L844.08 510.24" stroke="hsl(228.5, 77.2%, 51.5%)" stroke-width="1.5"></path><path d="M834.29 666.52L938.75 543.96" stroke="hsl(228.5, 77.2%, 51.5%)" stroke-width="1.5"></path><path d="M834.29 666.52L672.49 540.44" stroke="hsl(228.5, 77.2%, 51.5%)" stroke-width="1.5"></path><path d="M938.75 543.96L938.75 543.96" stroke="hsl(228.5, 77.2%, 51.5%)" stroke-width="1.5"></path><path d="M938.75 543.96L844.08 510.24" stroke="hsl(228.5, 77.2%, 51.5%)" stroke-width="1.5"></path><path d="M938.75 543.96L970.45 652.37" stroke="hsl(228.5, 77.2%, 51.5%)" stroke-width="1.5"></path><path d="M938.75 543.96L960.82 410.02" stroke="hsl(228.5, 77.2%, 51.5%)" stroke-width="1.5"></path><path d="M1121.58 206.16L1121.58 206.16" stroke="hsl(228.5, 77.2%, 51.5%)" stroke-width="1.5"></path><path d="M1121.58 206.16L1147.11 339.83" stroke="hsl(228.5, 77.2%, 51.5%)" stroke-width="1.5"></path><path d="M1121.58 206.16L972.57 248.43" stroke="hsl(228.5, 77.2%, 51.5%)" stroke-width="1.5"></path><path d="M1121.58 206.16L1278.2 224.55" stroke="hsl(228.5, 77.2%, 51.5%)" stroke-width="1.5"></path><path d="M1121.58 206.16L1284.31 109.51" stroke="hsl(228.5, 77.2%, 51.5%)" stroke-width="1.5"></path><path d="M1121.58 206.16L1294.74 370.72" stroke="hsl(228.5, 77.2%, 51.5%)" stroke-width="1.5"></path><path d="M1121.58 206.16L960.82 410.02" stroke="hsl(228.5, 77.2%, 51.5%)" stroke-width="1.5"></path><path d="M1284.31 109.51L1284.31 109.51" stroke="hsl(228.5, 77.2%, 51.5%)" stroke-width="1.5"></path><path d="M1284.31 109.51L1278.2 224.55" stroke="hsl(228.5, 77.2%, 51.5%)" stroke-width="1.5"></path><path d="M1284.31 109.51L1436.62 41.11" stroke="hsl(228.5, 77.2%, 51.5%)" stroke-width="1.5"></path><path d="M1410.42 -56.3L1410.42 -56.3" stroke="hsl(228.5, 77.2%, 51.5%)" stroke-width="1.5"></path><path d="M1410.42 -56.3L1436.62 41.11" stroke="hsl(228.5, 77.2%, 51.5%)" stroke-width="1.5"></path><path d="M1436.62 41.11L1436.62 41.11" stroke="hsl(228.5, 77.2%, 51.5%)" stroke-width="1.5"></path><path d="M1436.62 41.11L1583.76 68.13" stroke="hsl(228.5, 77.2%, 51.5%)" stroke-width="1.5"></path><path d="M1436.62 41.11L1550.66 -78.79" stroke="hsl(228.5, 77.2%, 51.5%)" stroke-width="1.5"></path><path d="M1436.62 41.11L1442.57 243.74" stroke="hsl(228.5, 77.2%, 51.5%)" stroke-width="1.5"></path><path d="M1446.63 389.26L1446.63 389.26" stroke="hsl(228.5, 77.2%, 51.5%)" stroke-width="1.5"></path><path d="M1446.63 389.26L1442.57 243.74" stroke="hsl(228.5, 77.2%, 51.5%)" stroke-width="1.5"></path><path d="M1446.63 389.26L1294.74 370.72" stroke="hsl(228.5, 77.2%, 51.5%)" stroke-width="1.5"></path><path d="M1446.63 389.26L1610.55 393.67" stroke="hsl(228.5, 77.2%, 51.5%)" stroke-width="1.5"></path><path d="M1446.63 389.26L1409 555.61" stroke="hsl(228.5, 77.2%, 51.5%)" stroke-width="1.5"></path><path d="M1409 555.61L1409 555.61" stroke="hsl(228.5, 77.2%, 51.5%)" stroke-width="1.5"></path><path d="M1409 555.61L1291.7 517.63" stroke="hsl(228.5, 77.2%, 51.5%)" stroke-width="1.5"></path><path d="M1409 555.61L1550.39 527.6" stroke="hsl(228.5, 77.2%, 51.5%)" stroke-width="1.5"></path><path d="M1409 555.61L1447.19 705.3" stroke="hsl(228.5, 77.2%, 51.5%)" stroke-width="1.5"></path><path d="M1409 555.61L1244.94 661.34" stroke="hsl(228.5, 77.2%, 51.5%)" stroke-width="1.5"></path><path d="M1550.66 -78.79L1550.66 -78.79" stroke="hsl(228.5, 77.2%, 51.5%)" stroke-width="1.5"></path><path d="M1550.66 -78.79L1410.42 -56.3" stroke="hsl(228.5, 77.2%, 51.5%)" stroke-width="1.5"></path><path d="M1550.66 -78.79L1583.76 68.13" stroke="hsl(228.5, 77.2%, 51.5%)" stroke-width="1.5"></path><path d="M1550.66 -78.79L1284.31 109.51" stroke="hsl(228.5, 77.2%, 51.5%)" stroke-width="1.5"></path><path d="M1550.66 -78.79L1442.57 243.74" stroke="hsl(228.5, 77.2%, 51.5%)" stroke-width="1.5"></path><path d="M-94.35 525.98L-94.35 525.98" stroke="hsl(228.5, 77.2%, 51.5%)" stroke-width="1.5"></path><path d="M-94.35 525.98L-40.21 708.92" stroke="hsl(228.5, 77.2%, 51.5%)" stroke-width="1.5"></path><path d="M-94.35 525.98L105.85 546.73" stroke="hsl(228.5, 77.2%, 51.5%)" stroke-width="1.5"></path><path d="M-94.35 525.98L78.45 677.26" stroke="hsl(228.5, 77.2%, 51.5%)" stroke-width="1.5"></path><path d="M-94.35 525.98L205.64 537.34" stroke="hsl(228.5, 77.2%, 51.5%)" stroke-width="1.5"></path><path d="M-40.21 708.92L-40.21 708.92" stroke="hsl(228.5, 77.2%, 51.5%)" stroke-width="1.5"></path><path d="M-40.21 708.92L78.45 677.26" stroke="hsl(228.5, 77.2%, 51.5%)" stroke-width="1.5"></path><path d="M-40.21 708.92L105.85 546.73" stroke="hsl(228.5, 77.2%, 51.5%)" stroke-width="1.5"></path><path d="M-40.21 708.92L193.89 685.46" stroke="hsl(228.5, 77.2%, 51.5%)" stroke-width="1.5"></path><path d="M-40.21 708.92L205.64 537.34" stroke="hsl(228.5, 77.2%, 51.5%)" stroke-width="1.5"></path><path d="M-40.21 708.92L345.73 538.13" stroke="hsl(228.5, 77.2%, 51.5%)" stroke-width="1.5"></path><path d="M105.85 546.73L105.85 546.73" stroke="hsl(228.5, 77.2%, 51.5%)" stroke-width="1.5"></path><path d="M105.85 546.73L205.64 537.34" stroke="hsl(228.5, 77.2%, 51.5%)" stroke-width="1.5"></path><path d="M105.85 546.73L78.45 677.26" stroke="hsl(228.5, 77.2%, 51.5%)" stroke-width="1.5"></path><path d="M105.85 546.73L193.89 685.46" stroke="hsl(228.5, 77.2%, 51.5%)" stroke-width="1.5"></path><path d="M78.45 677.26L78.45 677.26" stroke="hsl(228.5, 77.2%, 51.5%)" stroke-width="1.5"></path><path d="M78.45 677.26L193.89 685.46" stroke="hsl(228.5, 77.2%, 51.5%)" stroke-width="1.5"></path><path d="M205.64 537.34L205.64 537.34" stroke="hsl(228.5, 77.2%, 51.5%)" stroke-width="1.5"></path><path d="M205.64 537.34L193.89 685.46" stroke="hsl(228.5, 77.2%, 51.5%)" stroke-width="1.5"></path><path d="M205.64 537.34L78.45 677.26" stroke="hsl(228.5, 77.2%, 51.5%)" stroke-width="1.5"></path><path d="M205.64 537.34L382.28 683.36" stroke="hsl(228.5, 77.2%, 51.5%)" stroke-width="1.5"></path><path d="M193.89 685.46L193.89 685.46" stroke="hsl(228.5, 77.2%, 51.5%)" stroke-width="1.5"></path><path d="M382.28 683.36L382.28 683.36" stroke="hsl(228.5, 77.2%, 51.5%)" stroke-width="1.5"></path><path d="M382.28 683.36L345.73 538.13" stroke="hsl(228.5, 77.2%, 51.5%)" stroke-width="1.5"></path><path d="M382.28 683.36L537.14 647.7" stroke="hsl(228.5, 77.2%, 51.5%)" stroke-width="1.5"></path><path d="M382.28 683.36L193.89 685.46" stroke="hsl(228.5, 77.2%, 51.5%)" stroke-width="1.5"></path><path d="M537.14 647.7L537.14 647.7" stroke="hsl(228.5, 77.2%, 51.5%)" stroke-width="1.5"></path><path d="M537.14 647.7L701.65 662.71" stroke="hsl(228.5, 77.2%, 51.5%)" stroke-width="1.5"></path><path d="M537.14 647.7L672.49 540.44" stroke="hsl(228.5, 77.2%, 51.5%)" stroke-width="1.5"></path><path d="M537.14 647.7L345.73 538.13" stroke="hsl(228.5, 77.2%, 51.5%)" stroke-width="1.5"></path><path d="M537.14 647.7L834.29 666.52" stroke="hsl(228.5, 77.2%, 51.5%)" stroke-width="1.5"></path><path d="M537.14 647.7L702.52 369.73" stroke="hsl(228.5, 77.2%, 51.5%)" stroke-width="1.5"></path><path d="M702.52 369.73L702.52 369.73" stroke="hsl(228.5, 77.2%, 51.5%)" stroke-width="1.5"></path><path d="M702.52 369.73L829.76 363.3" stroke="hsl(228.5, 77.2%, 51.5%)" stroke-width="1.5"></path><path d="M702.52 369.73L672.49 540.44" stroke="hsl(228.5, 77.2%, 51.5%)" stroke-width="1.5"></path><path d="M702.52 369.73L844.08 510.24" stroke="hsl(228.5, 77.2%, 51.5%)" stroke-width="1.5"></path><path d="M702.52 369.73L960.82 410.02" stroke="hsl(228.5, 77.2%, 51.5%)" stroke-width="1.5"></path><path d="M702.52 369.73L701.65 662.71" stroke="hsl(228.5, 77.2%, 51.5%)" stroke-width="1.5"></path><path d="M702.52 369.73L938.75 543.96" stroke="hsl(228.5, 77.2%, 51.5%)" stroke-width="1.5"></path><path d="M672.49 540.44L672.49 540.44" stroke="hsl(228.5, 77.2%, 51.5%)" stroke-width="1.5"></path><path d="M672.49 540.44L701.65 662.71" stroke="hsl(228.5, 77.2%, 51.5%)" stroke-width="1.5"></path><path d="M672.49 540.44L844.08 510.24" stroke="hsl(228.5, 77.2%, 51.5%)" stroke-width="1.5"></path><path d="M701.65 662.71L701.65 662.71" stroke="hsl(228.5, 77.2%, 51.5%)" stroke-width="1.5"></path><path d="M829.76 363.3L829.76 363.3" stroke="hsl(228.5, 77.2%, 51.5%)" stroke-width="1.5"></path><path d="M829.76 363.3L960.82 410.02" stroke="hsl(228.5, 77.2%, 51.5%)" stroke-width="1.5"></path><path d="M829.76 363.3L844.08 510.24" stroke="hsl(228.5, 77.2%, 51.5%)" stroke-width="1.5"></path><path d="M829.76 363.3L972.57 248.43" stroke="hsl(228.5, 77.2%, 51.5%)" stroke-width="1.5"></path><path d="M844.08 510.24L844.08 510.24" stroke="hsl(228.5, 77.2%, 51.5%)" stroke-width="1.5"></path><path d="M844.08 510.24L960.82 410.02" stroke="hsl(228.5, 77.2%, 51.5%)" stroke-width="1.5"></path><path d="M844.08 510.24L970.45 652.37" stroke="hsl(228.5, 77.2%, 51.5%)" stroke-width="1.5"></path><path d="M972.57 248.43L972.57 248.43" stroke="hsl(228.5, 77.2%, 51.5%)" stroke-width="1.5"></path><path d="M972.57 248.43L960.82 410.02" stroke="hsl(228.5, 77.2%, 51.5%)" stroke-width="1.5"></path><path d="M972.57 248.43L1147.11 339.83" stroke="hsl(228.5, 77.2%, 51.5%)" stroke-width="1.5"></path><path d="M960.82 410.02L960.82 410.02" stroke="hsl(228.5, 77.2%, 51.5%)" stroke-width="1.5"></path><path d="M970.45 652.37L970.45 652.37" stroke="hsl(228.5, 77.2%, 51.5%)" stroke-width="1.5"></path><path d="M970.45 652.37L1116.29 698.37" stroke="hsl(228.5, 77.2%, 51.5%)" stroke-width="1.5"></path><path d="M1147.11 339.83L1147.11 339.83" stroke="hsl(228.5, 77.2%, 51.5%)" stroke-width="1.5"></path><path d="M1147.11 339.83L1294.74 370.72" stroke="hsl(228.5, 77.2%, 51.5%)" stroke-width="1.5"></path><path d="M1147.11 339.83L1278.2 224.55" stroke="hsl(228.5, 77.2%, 51.5%)" stroke-width="1.5"></path><path d="M1114.38 558.82L1114.38 558.82" stroke="hsl(228.5, 77.2%, 51.5%)" stroke-width="1.5"></path><path d="M1114.38 558.82L1116.29 698.37" stroke="hsl(228.5, 77.2%, 51.5%)" stroke-width="1.5"></path><path d="M1114.38 558.82L1244.94 661.34" stroke="hsl(228.5, 77.2%, 51.5%)" stroke-width="1.5"></path><path d="M1114.38 558.82L970.45 652.37" stroke="hsl(228.5, 77.2%, 51.5%)" stroke-width="1.5"></path><path d="M1114.38 558.82L938.75 543.96" stroke="hsl(228.5, 77.2%, 51.5%)" stroke-width="1.5"></path><path d="M1114.38 558.82L1291.7 517.63" stroke="hsl(228.5, 77.2%, 51.5%)" stroke-width="1.5"></path><path d="M1116.29 698.37L1116.29 698.37" stroke="hsl(228.5, 77.2%, 51.5%)" stroke-width="1.5"></path><path d="M1116.29 698.37L1244.94 661.34" stroke="hsl(228.5, 77.2%, 51.5%)" stroke-width="1.5"></path><path d="M1278.2 224.55L1278.2 224.55" stroke="hsl(228.5, 77.2%, 51.5%)" stroke-width="1.5"></path><path d="M1278.2 224.55L1294.74 370.72" stroke="hsl(228.5, 77.2%, 51.5%)" stroke-width="1.5"></path><path d="M1278.2 224.55L1442.57 243.74" stroke="hsl(228.5, 77.2%, 51.5%)" stroke-width="1.5"></path><path d="M1294.74 370.72L1294.74 370.72" stroke="hsl(228.5, 77.2%, 51.5%)" stroke-width="1.5"></path><path d="M1294.74 370.72L1291.7 517.63" stroke="hsl(228.5, 77.2%, 51.5%)" stroke-width="1.5"></path><path d="M1291.7 517.63L1291.7 517.63" stroke="hsl(228.5, 77.2%, 51.5%)" stroke-width="1.5"></path><path d="M1244.94 661.34L1244.94 661.34" stroke="hsl(228.5, 77.2%, 51.5%)" stroke-width="1.5"></path><path d="M1244.94 661.34L1291.7 517.63" stroke="hsl(228.5, 77.2%, 51.5%)" stroke-width="1.5"></path><path d="M1244.94 661.34L1447.19 705.3" stroke="hsl(228.5, 77.2%, 51.5%)" stroke-width="1.5"></path><path d="M1244.94 661.34L970.45 652.37" stroke="hsl(228.5, 77.2%, 51.5%)" stroke-width="1.5"></path><path d="M1442.57 243.74L1442.57 243.74" stroke="hsl(228.5, 77.2%, 51.5%)" stroke-width="1.5"></path><path d="M1442.57 243.74L1596.88 258.35" stroke="hsl(228.5, 77.2%, 51.5%)" stroke-width="1.5"></path><path d="M1447.19 705.3L1447.19 705.3" stroke="hsl(228.5, 77.2%, 51.5%)" stroke-width="1.5"></path><path d="M1447.19 705.3L1560.01 705.5" stroke="hsl(228.5, 77.2%, 51.5%)" stroke-width="1.5"></path><path d="M1447.19 705.3L1550.39 527.6" stroke="hsl(228.5, 77.2%, 51.5%)" stroke-width="1.5"></path><path d="M1447.19 705.3L1291.7 517.63" stroke="hsl(228.5, 77.2%, 51.5%)" stroke-width="1.5"></path><path d="M1583.76 68.13L1583.76 68.13" stroke="hsl(228.5, 77.2%, 51.5%)" stroke-width="1.5"></path><path d="M1596.88 258.35L1596.88 258.35" stroke="hsl(228.5, 77.2%, 51.5%)" stroke-width="1.5"></path><path d="M1596.88 258.35L1610.55 393.67" stroke="hsl(228.5, 77.2%, 51.5%)" stroke-width="1.5"></path><path d="M1610.55 393.67L1610.55 393.67" stroke="hsl(228.5, 77.2%, 51.5%)" stroke-width="1.5"></path><path d="M1550.39 527.6L1550.39 527.6" stroke="hsl(228.5, 77.2%, 51.5%)" stroke-width="1.5"></path><path d="M1560.01 705.5L1560.01 705.5" stroke="hsl(228.5, 77.2%, 51.5%)" stroke-width="1.5"></path><path d="M1560.01 705.5L1550.39 527.6" stroke="hsl(228.5, 77.2%, 51.5%)" stroke-width="1.5"></path><path d="M1560.01 705.5L1409 555.61" stroke="hsl(228.5, 77.2%, 51.5%)" stroke-width="1.5"></path><circle r="25" cx="345.73" cy="538.13" fill="url(&quot;#SvgjsRadialGradient1001&quot;)"></circle><circle r="25" cx="834.29" cy="666.52" fill="url(&quot;#SvgjsRadialGradient1001&quot;)"></circle><circle r="25" cx="938.75" cy="543.96" fill="url(&quot;#SvgjsRadialGradient1001&quot;)"></circle><circle r="25" cx="1121.58" cy="206.16" fill="url(&quot;#SvgjsRadialGradient1001&quot;)"></circle><circle r="25" cx="1284.31" cy="109.51" fill="url(&quot;#SvgjsRadialGradient1001&quot;)"></circle><circle r="25" cx="1410.42" cy="-56.3" fill="url(&quot;#SvgjsRadialGradient1001&quot;)"></circle><circle r="25" cx="1436.62" cy="41.11" fill="url(&quot;#SvgjsRadialGradient1001&quot;)"></circle><circle r="25" cx="1446.63" cy="389.26" fill="url(&quot;#SvgjsRadialGradient1001&quot;)"></circle><circle r="25" cx="1409" cy="555.61" fill="url(&quot;#SvgjsRadialGradient1001&quot;)"></circle><circle r="25" cx="1550.66" cy="-78.79" fill="url(&quot;#SvgjsRadialGradient1001&quot;)"></circle><circle r="5" cx="-94.35" cy="525.98" fill="#8b9ad9"></circle><circle r="5" cx="-40.21" cy="708.92" fill="#8b9ad9"></circle><circle r="5" cx="105.85" cy="546.73" fill="#8b9ad9"></circle><circle r="5" cx="78.45" cy="677.26" fill="#8b9ad9"></circle><circle r="5" cx="205.64" cy="537.34" fill="#8b9ad9"></circle><circle r="5" cx="193.89" cy="685.46" fill="#8b9ad9"></circle><circle r="5" cx="382.28" cy="683.36" fill="#8b9ad9"></circle><circle r="5" cx="537.14" cy="647.7" fill="#8b9ad9"></circle><circle r="5" cx="702.52" cy="369.73" fill="#8b9ad9"></circle><circle r="5" cx="672.49" cy="540.44" fill="#8b9ad9"></circle><circle r="5" cx="701.65" cy="662.71" fill="#8b9ad9"></circle><circle r="5" cx="829.76" cy="363.3" fill="#8b9ad9"></circle><circle r="5" cx="844.08" cy="510.24" fill="#8b9ad9"></circle><circle r="5" cx="972.57" cy="248.43" fill="#8b9ad9"></circle><circle r="5" cx="960.82" cy="410.02" fill="#8b9ad9"></circle><circle r="5" cx="970.45" cy="652.37" fill="#8b9ad9"></circle><circle r="5" cx="1147.11" cy="339.83" fill="#8b9ad9"></circle><circle r="5" cx="1114.38" cy="558.82" fill="#8b9ad9"></circle><circle r="5" cx="1116.29" cy="698.37" fill="#8b9ad9"></circle><circle r="5" cx="1278.2" cy="224.55" fill="#8b9ad9"></circle><circle r="5" cx="1294.74" cy="370.72" fill="#8b9ad9"></circle><circle r="5" cx="1291.7" cy="517.63" fill="#8b9ad9"></circle><circle r="5" cx="1244.94" cy="661.34" fill="#8b9ad9"></circle><circle r="5" cx="1442.57" cy="243.74" fill="#8b9ad9"></circle><circle r="5" cx="1447.19" cy="705.3" fill="#8b9ad9"></circle><circle r="5" cx="1583.76" cy="68.13" fill="#8b9ad9"></circle><circle r="5" cx="1596.88" cy="258.35" fill="#8b9ad9"></circle><circle r="5" cx="1610.55" cy="393.67" fill="#8b9ad9"></circle><circle r="5" cx="1550.39" cy="527.6" fill="#8b9ad9"></circle><circle r="5" cx="1560.01" cy="705.5" fill="#8b9ad9"></circle></g><defs><mask id="SvgjsMask1000"><rect width="1440" height="560" fill="#ffffff"></rect></mask><radialGradient id="SvgjsRadialGradient1001"><stop stop-color="#ffffff" offset="0.1"></stop><stop stop-color="#1735b3" offset="0.2"></stop><stop stop-color="rgba(23, 53, 179, 0)" offset="1"></stop></radialGradient></defs></svg>